<svg width="84" height="60" viewBox="0 0 84 60" fill="none" xmlns="http://www.w3.org/2000/svg">
<mask id="path-1-inside-1_3_13" fill="white">
<path d="M2.41992 31.5605C2.31055 31.5605 2.07227 31.5352 1.70508 31.4844C1.67383 32.0742 1.6582 33.1074 1.6582 34.584C1.6582 34.7402 1.60742 34.873 1.50586 34.9824C1.4043 35.0879 1.27734 35.1406 1.125 35.1406C0.96875 35.1406 0.839844 35.0879 0.738281 34.9824C0.636719 34.873 0.585938 34.7402 0.585938 34.584V32.8613C0.585938 32.2871 0.621094 31.4785 0.691406 30.4355C0.769531 29.3066 0.8125 28.498 0.820312 28.0098V27.2012C0.820312 26.8145 0.84375 26.5332 0.890625 26.3574C0.980469 26.0137 1.17188 25.8652 1.46484 25.9121C1.58984 25.873 1.76758 25.8438 1.99805 25.8242C2.22852 25.8047 2.51172 25.7949 2.84766 25.7949C3.5625 25.7949 4.23242 26.0391 4.85742 26.5273C5.54492 27.0664 5.88867 27.7148 5.88867 28.4727C5.88867 29.4414 5.52148 30.2129 4.78711 30.7871C4.13086 31.3027 3.3418 31.5605 2.41992 31.5605ZM2.71289 26.9082C2.54102 26.9082 2.38672 26.9121 2.25 26.9199C2.11719 26.9277 2.00391 26.9395 1.91016 26.9551L1.89844 28.0332L1.77539 30.3652L2.41992 30.4414C3.07617 30.4414 3.62891 30.2754 4.07812 29.9434C4.57031 29.5801 4.81641 29.0898 4.81641 28.4727C4.81641 28.0352 4.58203 27.6582 4.11328 27.3418C3.67969 27.0527 3.21289 26.9082 2.71289 26.9082Z"/>
<path d="M15.3492 31.373C15.3492 32.3379 15.0797 33.2129 14.5406 33.998C13.9117 34.9082 13.0914 35.3633 12.0797 35.3633C11.2516 35.3633 10.5484 35.1191 9.97031 34.6309C9.35703 34.1152 9.05039 33.4473 9.05039 32.627C9.05039 31.6621 9.34531 30.7812 9.93516 29.9844C10.5953 29.0859 11.4312 28.6367 12.443 28.6367C14.3805 28.6367 15.3492 29.5488 15.3492 31.373ZM14.1305 31.373C14.1305 30.7793 14.0035 30.3711 13.7496 30.1484C13.4996 29.9258 13.0641 29.8145 12.443 29.8145C11.8414 29.8145 11.3219 30.1172 10.8844 30.7227C10.4742 31.2969 10.2691 31.9316 10.2691 32.627C10.2691 33.0957 10.4469 33.4766 10.8023 33.7695C11.1422 34.0469 11.568 34.1855 12.0797 34.1855C12.6734 34.1855 13.1715 33.8828 13.5738 33.2773C13.9449 32.7188 14.1305 32.084 14.1305 31.373Z"/>
<path d="M21.6105 35.3691C20.8098 35.3691 20.1418 35.127 19.6066 34.6426C19.0441 34.1348 18.7629 33.4648 18.7629 32.6328C18.7629 31.8398 19.0266 31.0215 19.5539 30.1777C20.1398 29.2402 20.8 28.7715 21.5344 28.7715C21.9172 28.7715 22.3449 28.8613 22.8176 29.041C23.4152 29.2715 23.7141 29.5527 23.7141 29.8848C23.7141 30.0332 23.6652 30.166 23.5676 30.2832C23.4699 30.3965 23.3488 30.4531 23.2043 30.4531C23.091 30.4531 22.9914 30.4199 22.9055 30.3535C22.8234 30.2832 22.7434 30.2148 22.6652 30.1484C22.4348 29.9648 22.0578 29.873 21.5344 29.873C21.1359 29.873 20.7414 30.2285 20.3508 30.9395C19.9953 31.5918 19.8176 32.1562 19.8176 32.6328C19.8176 33.1484 19.9934 33.5547 20.3449 33.8516C20.673 34.1289 21.0949 34.2676 21.6105 34.2676C21.8449 34.2676 22.0949 34.2051 22.3605 34.0801L23.0402 33.7168C23.1574 33.6543 23.2414 33.623 23.2922 33.623C23.4367 33.623 23.5617 33.6816 23.6672 33.7988C23.7727 33.9121 23.8254 34.043 23.8254 34.1914C23.8254 34.4766 23.5246 34.752 22.923 35.0176C22.3957 35.252 21.9582 35.3691 21.6105 35.3691Z"/>
<path d="M34.6922 27.5996C34.4031 27.5996 33.9578 27.5762 33.3563 27.5293C32.7703 27.4863 32.325 27.4668 32.0203 27.4707H31.6043C31.616 28.0098 31.6688 28.8848 31.7625 30.0957C31.8484 31.2246 31.8914 32.1016 31.8914 32.7266C31.8914 32.8633 31.9051 33.0703 31.9324 33.3477C31.9598 33.625 31.9734 33.834 31.9734 33.9746C31.9734 34.2402 31.9305 34.4688 31.8445 34.6602C31.7352 34.918 31.5652 35.0469 31.3348 35.0469C31.1785 35.0469 31.0379 34.9922 30.9129 34.8828C30.7879 34.7734 30.7254 34.6328 30.7254 34.4609C30.7254 34.4023 30.7352 34.3145 30.7547 34.1973C30.7742 34.0801 30.784 33.9922 30.784 33.9336C30.784 33.7422 30.7703 33.4551 30.743 33.0723C30.7195 32.6895 30.7078 32.4004 30.7078 32.2051C30.7078 31.6465 30.6629 30.8613 30.573 29.8496C30.4793 28.7559 30.4266 27.9707 30.4148 27.4941L29.8816 27.5C29.0262 27.5 28.3543 27.4375 27.866 27.3125C27.5496 27.2305 27.3914 27.0371 27.3914 26.7324C27.3914 26.5723 27.4422 26.4316 27.5438 26.3105C27.6609 26.1738 27.8113 26.1113 27.9949 26.123C28.1316 26.1309 28.4441 26.166 28.9324 26.2285C29.323 26.2754 29.6395 26.2988 29.8816 26.2988C30.116 26.2988 30.4715 26.2949 30.948 26.2871C31.4246 26.2754 31.7801 26.2695 32.0145 26.2695C32.3152 26.2695 32.7605 26.291 33.3504 26.334C33.9441 26.377 34.3914 26.3984 34.6922 26.3984C34.8602 26.3984 35.0008 26.457 35.1141 26.5742C35.2273 26.6875 35.284 26.8301 35.284 27.002C35.284 27.1699 35.2273 27.3125 35.1141 27.4297C35.0008 27.543 34.8602 27.5996 34.6922 27.5996Z"/>
<path d="M43.1918 29.7734L41.1645 34.1562C40.6645 35.2227 40.2816 36.1152 40.016 36.834L39.6293 37.9707C39.5277 38.252 39.352 38.3926 39.102 38.3926C38.9379 38.3926 38.7953 38.3379 38.6742 38.2285C38.557 38.123 38.4984 37.9902 38.4984 37.8301C38.4984 37.4395 38.9203 36.3086 39.7641 34.4375L37.6664 30.4004L37.4027 29.9727C37.2973 29.793 37.2445 29.6426 37.2445 29.5215C37.2445 29.3613 37.3051 29.2207 37.4262 29.0996C37.5512 28.9785 37.6898 28.918 37.8422 28.918C38.0219 28.918 38.1605 28.9863 38.2582 29.123C38.9223 30.0449 39.6352 31.3574 40.3969 33.0605L41.2641 31.0391C41.5766 30.3398 41.8773 29.7383 42.1664 29.2344C42.2914 29.0156 42.4555 28.9062 42.6586 28.9062C42.8187 28.9062 42.9594 28.9629 43.0805 29.0762C43.2055 29.1895 43.268 29.3242 43.268 29.4805C43.268 29.5664 43.2426 29.6641 43.1918 29.7734Z"/>
<path d="M49.2188 35.2051C48.8281 35.2051 48.3984 35.1426 47.9297 35.0176L47.918 37.8184C47.918 37.9902 47.8633 38.1309 47.7539 38.2402C47.6484 38.3496 47.5117 38.4043 47.3438 38.4043C47.1758 38.4043 47.0371 38.3496 46.9277 38.2402C46.8223 38.1309 46.7695 37.9902 46.7695 37.8184L46.7871 35.4746V33.1367C46.7754 32.2812 46.7461 31.502 46.6992 30.7988L46.6113 29.6094C46.6113 29.332 46.6621 29.0977 46.7637 28.9062C46.8809 28.6758 47.0508 28.5605 47.2734 28.5605C47.4258 28.5605 47.5527 28.6152 47.6543 28.7246C47.7598 28.8301 47.8125 28.9609 47.8125 29.1172C47.8125 29.1523 47.8066 29.2168 47.7949 29.3105C47.7754 29.4316 47.7617 29.543 47.7539 29.6445C48.0898 29.4141 48.4141 29.2422 48.7266 29.1289C49.0391 29.0117 49.3379 28.9531 49.623 28.9531C50.4238 28.9531 51.0098 29.3086 51.3809 30.0195C51.6738 30.582 51.8203 31.3262 51.8203 32.252C51.8203 33.0957 51.5938 33.791 51.1406 34.3379C50.6602 34.916 50.0195 35.2051 49.2188 35.2051ZM49.623 30.125C49.2637 30.125 48.9395 30.2051 48.6504 30.3652C48.4434 30.4785 48.1816 30.6855 47.8652 30.9863C47.916 31.873 47.9414 32.8047 47.9414 33.7812C48.3672 33.9453 48.793 34.0273 49.2188 34.0273C49.707 34.0273 50.0801 33.8457 50.3379 33.4824C50.5605 33.166 50.6719 32.7559 50.6719 32.252C50.6719 31.541 50.584 31.0098 50.4082 30.6582C50.2363 30.3027 49.9746 30.125 49.623 30.125Z"/>
<path d="M61.357 32.334C61.357 33.2871 61.0309 33.998 60.3785 34.4668C59.8082 34.877 59.0289 35.082 58.0406 35.082C57.8531 35.082 57.5953 35.0742 57.2672 35.0586C56.9 35.0391 56.6422 35.0293 56.4938 35.0293C56.4195 35.0527 56.3453 35.0645 56.2711 35.0645C55.8531 35.0645 55.6441 34.7188 55.6441 34.0273C55.6441 33.9258 55.6715 33.5859 55.7262 33.0078C55.8004 32.2266 55.8375 31.4961 55.8375 30.8164C55.8375 30.4219 55.818 29.834 55.7789 29.0527C55.7398 28.2715 55.7203 27.6855 55.7203 27.2949C55.7203 26.8418 55.7457 26.5605 55.7965 26.4512C55.8902 26.2363 56.1344 26.1289 56.5289 26.1289C56.8219 26.1289 57.2633 26.1211 57.8531 26.1055C58.4469 26.0898 58.8922 26.082 59.1891 26.082H60.6656C60.8375 26.082 60.9762 26.1367 61.0816 26.2461C61.191 26.3516 61.2457 26.4902 61.2457 26.6621C61.2457 26.8301 61.191 26.9688 61.0816 27.0781C60.9762 27.1875 60.8375 27.2422 60.6656 27.2422C60.3883 27.2422 59.1363 27.2578 56.9098 27.2891C56.9293 27.9336 56.9645 28.6523 57.0152 29.4453C57.359 29.4336 57.6012 29.4277 57.7418 29.4277C58.941 29.4277 59.8121 29.6074 60.3551 29.9668C61.023 30.4121 61.357 31.2012 61.357 32.334ZM60.191 32.334C60.191 31.6191 59.9918 31.1328 59.5934 30.875C59.2809 30.6719 58.7477 30.5703 57.9938 30.5703C57.7828 30.5703 57.4566 30.5859 57.0152 30.6172C57.027 30.7695 57.0328 30.9355 57.0328 31.1152C57.0328 31.4824 56.982 32.4121 56.8805 33.9043C57.3922 33.916 57.7789 33.9219 58.0406 33.9219C59.4742 33.9219 60.191 33.3926 60.191 32.334Z"/>
<path d="M70.3137 29.7734L68.2863 34.1562C67.7863 35.2227 67.4035 36.1152 67.1379 36.834L66.7512 37.9707C66.6496 38.252 66.4738 38.3926 66.2238 38.3926C66.0598 38.3926 65.9172 38.3379 65.7961 38.2285C65.6789 38.123 65.6203 37.9902 65.6203 37.8301C65.6203 37.4395 66.0422 36.3086 66.8859 34.4375L64.7883 30.4004L64.5246 29.9727C64.4191 29.793 64.3664 29.6426 64.3664 29.5215C64.3664 29.3613 64.427 29.2207 64.548 29.0996C64.673 28.9785 64.8117 28.918 64.9641 28.918C65.1438 28.918 65.2824 28.9863 65.3801 29.123C66.0441 30.0449 66.757 31.3574 67.5188 33.0605L68.3859 31.0391C68.6984 30.3398 68.9992 29.7383 69.2883 29.2344C69.4133 29.0156 69.5773 28.9062 69.7805 28.9062C69.9406 28.9062 70.0813 28.9629 70.2023 29.0762C70.3273 29.1895 70.3898 29.3242 70.3898 29.4805C70.3898 29.5664 70.3645 29.6641 70.3137 29.7734Z"/>
<path d="M78.7137 34.5547C78.7137 34.7109 78.6512 34.8379 78.5262 34.9355C78.4051 35.0332 78.2684 35.082 78.116 35.082C77.8426 35.082 77.6531 34.9434 77.5477 34.666C77.4461 34.3887 77.1629 33.9199 76.698 33.2598C76.202 32.5605 75.8816 32.209 75.7371 32.2051C75.698 32.2051 75.4637 32.2051 75.034 32.2051C75.034 32.334 75.032 32.5625 75.0281 32.8906C75.0242 33.1953 75.0223 33.4258 75.0223 33.582C75.0223 34.2227 75.0125 34.5879 74.993 34.6777C74.9305 34.9941 74.7391 35.1523 74.4187 35.1523C74.2547 35.1523 74.1141 35.1035 73.9969 35.0059C73.8836 34.9082 73.827 34.7793 73.827 34.6191C73.827 34.4355 73.8348 34.1484 73.8504 33.7578C73.866 33.3633 73.8738 33.0723 73.8738 32.8848C73.8738 32.5137 73.8602 31.957 73.8328 31.2148C73.8055 30.4727 73.7918 29.9141 73.7918 29.5391C73.7918 29.0352 73.993 28.7832 74.3953 28.7832C74.5594 28.7832 74.698 28.834 74.8113 28.9355C74.9246 29.0371 74.9812 29.166 74.9812 29.3223C74.9812 29.6074 74.9949 30.1836 75.0223 31.0508C75.1277 31.0508 75.2703 31.0508 75.45 31.0508C75.9266 31.0195 76.2703 30.8066 76.4812 30.4121C76.5437 30.2676 76.6258 30.0801 76.7273 29.8496C77.0281 29.2246 77.4012 28.9121 77.8465 28.9121C77.9871 28.9121 78.1336 28.9453 78.2859 29.0117C78.4812 29.0977 78.5789 29.2109 78.5789 29.3516C78.5789 29.6602 78.4461 29.8145 78.1805 29.8145C77.9617 29.8145 77.7352 30.0762 77.5008 30.5996C77.3367 30.9551 77.2449 31.1523 77.2254 31.1914C77.1043 31.4141 76.9695 31.5859 76.8211 31.707C77.2117 31.9844 77.6219 32.4414 78.0516 33.0781C78.493 33.7305 78.7137 34.2227 78.7137 34.5547Z"/>
<path d="M26.8108 17.3215C29.6586 11.2142 34.4797 6.24365 40.4971 3.21063C46.5145 0.177618 53.3778 -0.741189 59.9811 0.602266C66.5844 1.94572 72.5431 5.4732 76.897 10.6163C81.251 15.7594 83.7466 22.2186 83.9818 28.953C84.2169 35.6875 82.1779 42.305 78.1934 47.7393C74.2088 53.1736 68.5107 57.1081 62.0172 58.9089C55.5237 60.7097 48.613 60.2719 42.3987 57.666C36.1844 55.0602 31.0284 50.438 27.7614 44.5443L29.0734 43.8171C32.1769 49.4161 37.0752 53.8071 42.9788 56.2827C48.8824 58.7583 55.4475 59.1742 61.6163 57.4635C67.7851 55.7527 73.1983 52.0149 76.9837 46.8523C80.769 41.6898 82.7061 35.4031 82.4827 29.0054C82.2593 22.6076 79.8884 16.4714 75.7522 11.5855C71.6159 6.69954 65.9551 3.34844 59.682 2.07215C53.4089 0.79587 46.8888 1.66874 41.1722 4.5501C35.4557 7.43147 30.8757 12.1535 28.1703 17.9554L26.8108 17.3215Z"/>
</mask>
<path d="M2.41992 31.5605C2.31055 31.5605 2.07227 31.5352 1.70508 31.4844C1.67383 32.0742 1.6582 33.1074 1.6582 34.584C1.6582 34.7402 1.60742 34.873 1.50586 34.9824C1.4043 35.0879 1.27734 35.1406 1.125 35.1406C0.96875 35.1406 0.839844 35.0879 0.738281 34.9824C0.636719 34.873 0.585938 34.7402 0.585938 34.584V32.8613C0.585938 32.2871 0.621094 31.4785 0.691406 30.4355C0.769531 29.3066 0.8125 28.498 0.820312 28.0098V27.2012C0.820312 26.8145 0.84375 26.5332 0.890625 26.3574C0.980469 26.0137 1.17188 25.8652 1.46484 25.9121C1.58984 25.873 1.76758 25.8438 1.99805 25.8242C2.22852 25.8047 2.51172 25.7949 2.84766 25.7949C3.5625 25.7949 4.23242 26.0391 4.85742 26.5273C5.54492 27.0664 5.88867 27.7148 5.88867 28.4727C5.88867 29.4414 5.52148 30.2129 4.78711 30.7871C4.13086 31.3027 3.3418 31.5605 2.41992 31.5605ZM2.71289 26.9082C2.54102 26.9082 2.38672 26.9121 2.25 26.9199C2.11719 26.9277 2.00391 26.9395 1.91016 26.9551L1.89844 28.0332L1.77539 30.3652L2.41992 30.4414C3.07617 30.4414 3.62891 30.2754 4.07812 29.9434C4.57031 29.5801 4.81641 29.0898 4.81641 28.4727C4.81641 28.0352 4.58203 27.6582 4.11328 27.3418C3.67969 27.0527 3.21289 26.9082 2.71289 26.9082Z" fill="#161616"/>
<path d="M15.3492 31.373C15.3492 32.3379 15.0797 33.2129 14.5406 33.998C13.9117 34.9082 13.0914 35.3633 12.0797 35.3633C11.2516 35.3633 10.5484 35.1191 9.97031 34.6309C9.35703 34.1152 9.05039 33.4473 9.05039 32.627C9.05039 31.6621 9.34531 30.7812 9.93516 29.9844C10.5953 29.0859 11.4312 28.6367 12.443 28.6367C14.3805 28.6367 15.3492 29.5488 15.3492 31.373ZM14.1305 31.373C14.1305 30.7793 14.0035 30.3711 13.7496 30.1484C13.4996 29.9258 13.0641 29.8145 12.443 29.8145C11.8414 29.8145 11.3219 30.1172 10.8844 30.7227C10.4742 31.2969 10.2691 31.9316 10.2691 32.627C10.2691 33.0957 10.4469 33.4766 10.8023 33.7695C11.1422 34.0469 11.568 34.1855 12.0797 34.1855C12.6734 34.1855 13.1715 33.8828 13.5738 33.2773C13.9449 32.7188 14.1305 32.084 14.1305 31.373Z" fill="#161616"/>
<path d="M21.6105 35.3691C20.8098 35.3691 20.1418 35.127 19.6066 34.6426C19.0441 34.1348 18.7629 33.4648 18.7629 32.6328C18.7629 31.8398 19.0266 31.0215 19.5539 30.1777C20.1398 29.2402 20.8 28.7715 21.5344 28.7715C21.9172 28.7715 22.3449 28.8613 22.8176 29.041C23.4152 29.2715 23.7141 29.5527 23.7141 29.8848C23.7141 30.0332 23.6652 30.166 23.5676 30.2832C23.4699 30.3965 23.3488 30.4531 23.2043 30.4531C23.091 30.4531 22.9914 30.4199 22.9055 30.3535C22.8234 30.2832 22.7434 30.2148 22.6652 30.1484C22.4348 29.9648 22.0578 29.873 21.5344 29.873C21.1359 29.873 20.7414 30.2285 20.3508 30.9395C19.9953 31.5918 19.8176 32.1562 19.8176 32.6328C19.8176 33.1484 19.9934 33.5547 20.3449 33.8516C20.673 34.1289 21.0949 34.2676 21.6105 34.2676C21.8449 34.2676 22.0949 34.2051 22.3605 34.0801L23.0402 33.7168C23.1574 33.6543 23.2414 33.623 23.2922 33.623C23.4367 33.623 23.5617 33.6816 23.6672 33.7988C23.7727 33.9121 23.8254 34.043 23.8254 34.1914C23.8254 34.4766 23.5246 34.752 22.923 35.0176C22.3957 35.252 21.9582 35.3691 21.6105 35.3691Z" fill="#161616"/>
<path d="M34.6922 27.5996C34.4031 27.5996 33.9578 27.5762 33.3563 27.5293C32.7703 27.4863 32.325 27.4668 32.0203 27.4707H31.6043C31.616 28.0098 31.6688 28.8848 31.7625 30.0957C31.8484 31.2246 31.8914 32.1016 31.8914 32.7266C31.8914 32.8633 31.9051 33.0703 31.9324 33.3477C31.9598 33.625 31.9734 33.834 31.9734 33.9746C31.9734 34.2402 31.9305 34.4688 31.8445 34.6602C31.7352 34.918 31.5652 35.0469 31.3348 35.0469C31.1785 35.0469 31.0379 34.9922 30.9129 34.8828C30.7879 34.7734 30.7254 34.6328 30.7254 34.4609C30.7254 34.4023 30.7352 34.3145 30.7547 34.1973C30.7742 34.0801 30.784 33.9922 30.784 33.9336C30.784 33.7422 30.7703 33.4551 30.743 33.0723C30.7195 32.6895 30.7078 32.4004 30.7078 32.2051C30.7078 31.6465 30.6629 30.8613 30.573 29.8496C30.4793 28.7559 30.4266 27.9707 30.4148 27.4941L29.8816 27.5C29.0262 27.5 28.3543 27.4375 27.866 27.3125C27.5496 27.2305 27.3914 27.0371 27.3914 26.7324C27.3914 26.5723 27.4422 26.4316 27.5438 26.3105C27.6609 26.1738 27.8113 26.1113 27.9949 26.123C28.1316 26.1309 28.4441 26.166 28.9324 26.2285C29.323 26.2754 29.6395 26.2988 29.8816 26.2988C30.116 26.2988 30.4715 26.2949 30.948 26.2871C31.4246 26.2754 31.7801 26.2695 32.0145 26.2695C32.3152 26.2695 32.7605 26.291 33.3504 26.334C33.9441 26.377 34.3914 26.3984 34.6922 26.3984C34.8602 26.3984 35.0008 26.457 35.1141 26.5742C35.2273 26.6875 35.284 26.8301 35.284 27.002C35.284 27.1699 35.2273 27.3125 35.1141 27.4297C35.0008 27.543 34.8602 27.5996 34.6922 27.5996Z" fill="#161616"/>
<path d="M43.1918 29.7734L41.1645 34.1562C40.6645 35.2227 40.2816 36.1152 40.016 36.834L39.6293 37.9707C39.5277 38.252 39.352 38.3926 39.102 38.3926C38.9379 38.3926 38.7953 38.3379 38.6742 38.2285C38.557 38.123 38.4984 37.9902 38.4984 37.8301C38.4984 37.4395 38.9203 36.3086 39.7641 34.4375L37.6664 30.4004L37.4027 29.9727C37.2973 29.793 37.2445 29.6426 37.2445 29.5215C37.2445 29.3613 37.3051 29.2207 37.4262 29.0996C37.5512 28.9785 37.6898 28.918 37.8422 28.918C38.0219 28.918 38.1605 28.9863 38.2582 29.123C38.9223 30.0449 39.6352 31.3574 40.3969 33.0605L41.2641 31.0391C41.5766 30.3398 41.8773 29.7383 42.1664 29.2344C42.2914 29.0156 42.4555 28.9062 42.6586 28.9062C42.8187 28.9062 42.9594 28.9629 43.0805 29.0762C43.2055 29.1895 43.268 29.3242 43.268 29.4805C43.268 29.5664 43.2426 29.6641 43.1918 29.7734Z" fill="#161616"/>
<path d="M49.2188 35.2051C48.8281 35.2051 48.3984 35.1426 47.9297 35.0176L47.918 37.8184C47.918 37.9902 47.8633 38.1309 47.7539 38.2402C47.6484 38.3496 47.5117 38.4043 47.3438 38.4043C47.1758 38.4043 47.0371 38.3496 46.9277 38.2402C46.8223 38.1309 46.7695 37.9902 46.7695 37.8184L46.7871 35.4746V33.1367C46.7754 32.2812 46.7461 31.502 46.6992 30.7988L46.6113 29.6094C46.6113 29.332 46.6621 29.0977 46.7637 28.9062C46.8809 28.6758 47.0508 28.5605 47.2734 28.5605C47.4258 28.5605 47.5527 28.6152 47.6543 28.7246C47.7598 28.8301 47.8125 28.9609 47.8125 29.1172C47.8125 29.1523 47.8066 29.2168 47.7949 29.3105C47.7754 29.4316 47.7617 29.543 47.7539 29.6445C48.0898 29.4141 48.4141 29.2422 48.7266 29.1289C49.0391 29.0117 49.3379 28.9531 49.623 28.9531C50.4238 28.9531 51.0098 29.3086 51.3809 30.0195C51.6738 30.582 51.8203 31.3262 51.8203 32.252C51.8203 33.0957 51.5938 33.791 51.1406 34.3379C50.6602 34.916 50.0195 35.2051 49.2188 35.2051ZM49.623 30.125C49.2637 30.125 48.9395 30.2051 48.6504 30.3652C48.4434 30.4785 48.1816 30.6855 47.8652 30.9863C47.916 31.873 47.9414 32.8047 47.9414 33.7812C48.3672 33.9453 48.793 34.0273 49.2188 34.0273C49.707 34.0273 50.0801 33.8457 50.3379 33.4824C50.5605 33.166 50.6719 32.7559 50.6719 32.252C50.6719 31.541 50.584 31.0098 50.4082 30.6582C50.2363 30.3027 49.9746 30.125 49.623 30.125Z" fill="#161616"/>
<path d="M61.357 32.334C61.357 33.2871 61.0309 33.998 60.3785 34.4668C59.8082 34.877 59.0289 35.082 58.0406 35.082C57.8531 35.082 57.5953 35.0742 57.2672 35.0586C56.9 35.0391 56.6422 35.0293 56.4938 35.0293C56.4195 35.0527 56.3453 35.0645 56.2711 35.0645C55.8531 35.0645 55.6441 34.7188 55.6441 34.0273C55.6441 33.9258 55.6715 33.5859 55.7262 33.0078C55.8004 32.2266 55.8375 31.4961 55.8375 30.8164C55.8375 30.4219 55.818 29.834 55.7789 29.0527C55.7398 28.2715 55.7203 27.6855 55.7203 27.2949C55.7203 26.8418 55.7457 26.5605 55.7965 26.4512C55.8902 26.2363 56.1344 26.1289 56.5289 26.1289C56.8219 26.1289 57.2633 26.1211 57.8531 26.1055C58.4469 26.0898 58.8922 26.082 59.1891 26.082H60.6656C60.8375 26.082 60.9762 26.1367 61.0816 26.2461C61.191 26.3516 61.2457 26.4902 61.2457 26.6621C61.2457 26.8301 61.191 26.9688 61.0816 27.0781C60.9762 27.1875 60.8375 27.2422 60.6656 27.2422C60.3883 27.2422 59.1363 27.2578 56.9098 27.2891C56.9293 27.9336 56.9645 28.6523 57.0152 29.4453C57.359 29.4336 57.6012 29.4277 57.7418 29.4277C58.941 29.4277 59.8121 29.6074 60.3551 29.9668C61.023 30.4121 61.357 31.2012 61.357 32.334ZM60.191 32.334C60.191 31.6191 59.9918 31.1328 59.5934 30.875C59.2809 30.6719 58.7477 30.5703 57.9938 30.5703C57.7828 30.5703 57.4566 30.5859 57.0152 30.6172C57.027 30.7695 57.0328 30.9355 57.0328 31.1152C57.0328 31.4824 56.982 32.4121 56.8805 33.9043C57.3922 33.916 57.7789 33.9219 58.0406 33.9219C59.4742 33.9219 60.191 33.3926 60.191 32.334Z" fill="#161616"/>
<path d="M70.3137 29.7734L68.2863 34.1562C67.7863 35.2227 67.4035 36.1152 67.1379 36.834L66.7512 37.9707C66.6496 38.252 66.4738 38.3926 66.2238 38.3926C66.0598 38.3926 65.9172 38.3379 65.7961 38.2285C65.6789 38.123 65.6203 37.9902 65.6203 37.8301C65.6203 37.4395 66.0422 36.3086 66.8859 34.4375L64.7883 30.4004L64.5246 29.9727C64.4191 29.793 64.3664 29.6426 64.3664 29.5215C64.3664 29.3613 64.427 29.2207 64.548 29.0996C64.673 28.9785 64.8117 28.918 64.9641 28.918C65.1438 28.918 65.2824 28.9863 65.3801 29.123C66.0441 30.0449 66.757 31.3574 67.5188 33.0605L68.3859 31.0391C68.6984 30.3398 68.9992 29.7383 69.2883 29.2344C69.4133 29.0156 69.5773 28.9062 69.7805 28.9062C69.9406 28.9062 70.0813 28.9629 70.2023 29.0762C70.3273 29.1895 70.3898 29.3242 70.3898 29.4805C70.3898 29.5664 70.3645 29.6641 70.3137 29.7734Z" fill="#161616"/>
<path d="M78.7137 34.5547C78.7137 34.7109 78.6512 34.8379 78.5262 34.9355C78.4051 35.0332 78.2684 35.082 78.116 35.082C77.8426 35.082 77.6531 34.9434 77.5477 34.666C77.4461 34.3887 77.1629 33.9199 76.698 33.2598C76.202 32.5605 75.8816 32.209 75.7371 32.2051C75.698 32.2051 75.4637 32.2051 75.034 32.2051C75.034 32.334 75.032 32.5625 75.0281 32.8906C75.0242 33.1953 75.0223 33.4258 75.0223 33.582C75.0223 34.2227 75.0125 34.5879 74.993 34.6777C74.9305 34.9941 74.7391 35.1523 74.4187 35.1523C74.2547 35.1523 74.1141 35.1035 73.9969 35.0059C73.8836 34.9082 73.827 34.7793 73.827 34.6191C73.827 34.4355 73.8348 34.1484 73.8504 33.7578C73.866 33.3633 73.8738 33.0723 73.8738 32.8848C73.8738 32.5137 73.8602 31.957 73.8328 31.2148C73.8055 30.4727 73.7918 29.9141 73.7918 29.5391C73.7918 29.0352 73.993 28.7832 74.3953 28.7832C74.5594 28.7832 74.698 28.834 74.8113 28.9355C74.9246 29.0371 74.9812 29.166 74.9812 29.3223C74.9812 29.6074 74.9949 30.1836 75.0223 31.0508C75.1277 31.0508 75.2703 31.0508 75.45 31.0508C75.9266 31.0195 76.2703 30.8066 76.4812 30.4121C76.5437 30.2676 76.6258 30.0801 76.7273 29.8496C77.0281 29.2246 77.4012 28.9121 77.8465 28.9121C77.9871 28.9121 78.1336 28.9453 78.2859 29.0117C78.4812 29.0977 78.5789 29.2109 78.5789 29.3516C78.5789 29.6602 78.4461 29.8145 78.1805 29.8145C77.9617 29.8145 77.7352 30.0762 77.5008 30.5996C77.3367 30.9551 77.2449 31.1523 77.2254 31.1914C77.1043 31.4141 76.9695 31.5859 76.8211 31.707C77.2117 31.9844 77.6219 32.4414 78.0516 33.0781C78.493 33.7305 78.7137 34.2227 78.7137 34.5547Z" fill="#161616"/>
<path d="M26.8108 17.3215C29.6586 11.2142 34.4797 6.24365 40.4971 3.21063C46.5145 0.177618 53.3778 -0.741189 59.9811 0.602266C66.5844 1.94572 72.5431 5.4732 76.897 10.6163C81.251 15.7594 83.7466 22.2186 83.9818 28.953C84.2169 35.6875 82.1779 42.305 78.1934 47.7393C74.2088 53.1736 68.5107 57.1081 62.0172 58.9089C55.5237 60.7097 48.613 60.2719 42.3987 57.666C36.1844 55.0602 31.0284 50.438 27.7614 44.5443L29.0734 43.8171C32.1769 49.4161 37.0752 53.8071 42.9788 56.2827C48.8824 58.7583 55.4475 59.1742 61.6163 57.4635C67.7851 55.7527 73.1983 52.0149 76.9837 46.8523C80.769 41.6898 82.7061 35.4031 82.4827 29.0054C82.2593 22.6076 79.8884 16.4714 75.7522 11.5855C71.6159 6.69954 65.9551 3.34844 59.682 2.07215C53.4089 0.79587 46.8888 1.66874 41.1722 4.5501C35.4557 7.43147 30.8757 12.1535 28.1703 17.9554L26.8108 17.3215Z" fill="#E3E3E3"/>
<path d="M2.41992 31.5605C2.31055 31.5605 2.07227 31.5352 1.70508 31.4844C1.67383 32.0742 1.6582 33.1074 1.6582 34.584C1.6582 34.7402 1.60742 34.873 1.50586 34.9824C1.4043 35.0879 1.27734 35.1406 1.125 35.1406C0.96875 35.1406 0.839844 35.0879 0.738281 34.9824C0.636719 34.873 0.585938 34.7402 0.585938 34.584V32.8613C0.585938 32.2871 0.621094 31.4785 0.691406 30.4355C0.769531 29.3066 0.8125 28.498 0.820312 28.0098V27.2012C0.820312 26.8145 0.84375 26.5332 0.890625 26.3574C0.980469 26.0137 1.17188 25.8652 1.46484 25.9121C1.58984 25.873 1.76758 25.8438 1.99805 25.8242C2.22852 25.8047 2.51172 25.7949 2.84766 25.7949C3.5625 25.7949 4.23242 26.0391 4.85742 26.5273C5.54492 27.0664 5.88867 27.7148 5.88867 28.4727C5.88867 29.4414 5.52148 30.2129 4.78711 30.7871C4.13086 31.3027 3.3418 31.5605 2.41992 31.5605ZM2.71289 26.9082C2.54102 26.9082 2.38672 26.9121 2.25 26.9199C2.11719 26.9277 2.00391 26.9395 1.91016 26.9551L1.89844 28.0332L1.77539 30.3652L2.41992 30.4414C3.07617 30.4414 3.62891 30.2754 4.07812 29.9434C4.57031 29.5801 4.81641 29.0898 4.81641 28.4727C4.81641 28.0352 4.58203 27.6582 4.11328 27.3418C3.67969 27.0527 3.21289 26.9082 2.71289 26.9082Z" stroke="#161616" stroke-width="2" mask="url(#path-1-inside-1_3_13)"/>
<path d="M15.3492 31.373C15.3492 32.3379 15.0797 33.2129 14.5406 33.998C13.9117 34.9082 13.0914 35.3633 12.0797 35.3633C11.2516 35.3633 10.5484 35.1191 9.97031 34.6309C9.35703 34.1152 9.05039 33.4473 9.05039 32.627C9.05039 31.6621 9.34531 30.7812 9.93516 29.9844C10.5953 29.0859 11.4312 28.6367 12.443 28.6367C14.3805 28.6367 15.3492 29.5488 15.3492 31.373ZM14.1305 31.373C14.1305 30.7793 14.0035 30.3711 13.7496 30.1484C13.4996 29.9258 13.0641 29.8145 12.443 29.8145C11.8414 29.8145 11.3219 30.1172 10.8844 30.7227C10.4742 31.2969 10.2691 31.9316 10.2691 32.627C10.2691 33.0957 10.4469 33.4766 10.8023 33.7695C11.1422 34.0469 11.568 34.1855 12.0797 34.1855C12.6734 34.1855 13.1715 33.8828 13.5738 33.2773C13.9449 32.7188 14.1305 32.084 14.1305 31.373Z" stroke="#161616" stroke-width="2" mask="url(#path-1-inside-1_3_13)"/>
<path d="M21.6105 35.3691C20.8098 35.3691 20.1418 35.127 19.6066 34.6426C19.0441 34.1348 18.7629 33.4648 18.7629 32.6328C18.7629 31.8398 19.0266 31.0215 19.5539 30.1777C20.1398 29.2402 20.8 28.7715 21.5344 28.7715C21.9172 28.7715 22.3449 28.8613 22.8176 29.041C23.4152 29.2715 23.7141 29.5527 23.7141 29.8848C23.7141 30.0332 23.6652 30.166 23.5676 30.2832C23.4699 30.3965 23.3488 30.4531 23.2043 30.4531C23.091 30.4531 22.9914 30.4199 22.9055 30.3535C22.8234 30.2832 22.7434 30.2148 22.6652 30.1484C22.4348 29.9648 22.0578 29.873 21.5344 29.873C21.1359 29.873 20.7414 30.2285 20.3508 30.9395C19.9953 31.5918 19.8176 32.1562 19.8176 32.6328C19.8176 33.1484 19.9934 33.5547 20.3449 33.8516C20.673 34.1289 21.0949 34.2676 21.6105 34.2676C21.8449 34.2676 22.0949 34.2051 22.3605 34.0801L23.0402 33.7168C23.1574 33.6543 23.2414 33.623 23.2922 33.623C23.4367 33.623 23.5617 33.6816 23.6672 33.7988C23.7727 33.9121 23.8254 34.043 23.8254 34.1914C23.8254 34.4766 23.5246 34.752 22.923 35.0176C22.3957 35.252 21.9582 35.3691 21.6105 35.3691Z" stroke="#161616" stroke-width="2" mask="url(#path-1-inside-1_3_13)"/>
<path d="M34.6922 27.5996C34.4031 27.5996 33.9578 27.5762 33.3563 27.5293C32.7703 27.4863 32.325 27.4668 32.0203 27.4707H31.6043C31.616 28.0098 31.6688 28.8848 31.7625 30.0957C31.8484 31.2246 31.8914 32.1016 31.8914 32.7266C31.8914 32.8633 31.9051 33.0703 31.9324 33.3477C31.9598 33.625 31.9734 33.834 31.9734 33.9746C31.9734 34.2402 31.9305 34.4688 31.8445 34.6602C31.7352 34.918 31.5652 35.0469 31.3348 35.0469C31.1785 35.0469 31.0379 34.9922 30.9129 34.8828C30.7879 34.7734 30.7254 34.6328 30.7254 34.4609C30.7254 34.4023 30.7352 34.3145 30.7547 34.1973C30.7742 34.0801 30.784 33.9922 30.784 33.9336C30.784 33.7422 30.7703 33.4551 30.743 33.0723C30.7195 32.6895 30.7078 32.4004 30.7078 32.2051C30.7078 31.6465 30.6629 30.8613 30.573 29.8496C30.4793 28.7559 30.4266 27.9707 30.4148 27.4941L29.8816 27.5C29.0262 27.5 28.3543 27.4375 27.866 27.3125C27.5496 27.2305 27.3914 27.0371 27.3914 26.7324C27.3914 26.5723 27.4422 26.4316 27.5438 26.3105C27.6609 26.1738 27.8113 26.1113 27.9949 26.123C28.1316 26.1309 28.4441 26.166 28.9324 26.2285C29.323 26.2754 29.6395 26.2988 29.8816 26.2988C30.116 26.2988 30.4715 26.2949 30.948 26.2871C31.4246 26.2754 31.7801 26.2695 32.0145 26.2695C32.3152 26.2695 32.7605 26.291 33.3504 26.334C33.9441 26.377 34.3914 26.3984 34.6922 26.3984C34.8602 26.3984 35.0008 26.457 35.1141 26.5742C35.2273 26.6875 35.284 26.8301 35.284 27.002C35.284 27.1699 35.2273 27.3125 35.1141 27.4297C35.0008 27.543 34.8602 27.5996 34.6922 27.5996Z" stroke="#161616" stroke-width="2" mask="url(#path-1-inside-1_3_13)"/>
<path d="M43.1918 29.7734L41.1645 34.1562C40.6645 35.2227 40.2816 36.1152 40.016 36.834L39.6293 37.9707C39.5277 38.252 39.352 38.3926 39.102 38.3926C38.9379 38.3926 38.7953 38.3379 38.6742 38.2285C38.557 38.123 38.4984 37.9902 38.4984 37.8301C38.4984 37.4395 38.9203 36.3086 39.7641 34.4375L37.6664 30.4004L37.4027 29.9727C37.2973 29.793 37.2445 29.6426 37.2445 29.5215C37.2445 29.3613 37.3051 29.2207 37.4262 29.0996C37.5512 28.9785 37.6898 28.918 37.8422 28.918C38.0219 28.918 38.1605 28.9863 38.2582 29.123C38.9223 30.0449 39.6352 31.3574 40.3969 33.0605L41.2641 31.0391C41.5766 30.3398 41.8773 29.7383 42.1664 29.2344C42.2914 29.0156 42.4555 28.9062 42.6586 28.9062C42.8187 28.9062 42.9594 28.9629 43.0805 29.0762C43.2055 29.1895 43.268 29.3242 43.268 29.4805C43.268 29.5664 43.2426 29.6641 43.1918 29.7734Z" stroke="#161616" stroke-width="2" mask="url(#path-1-inside-1_3_13)"/>
<path d="M49.2188 35.2051C48.8281 35.2051 48.3984 35.1426 47.9297 35.0176L47.918 37.8184C47.918 37.9902 47.8633 38.1309 47.7539 38.2402C47.6484 38.3496 47.5117 38.4043 47.3438 38.4043C47.1758 38.4043 47.0371 38.3496 46.9277 38.2402C46.8223 38.1309 46.7695 37.9902 46.7695 37.8184L46.7871 35.4746V33.1367C46.7754 32.2812 46.7461 31.502 46.6992 30.7988L46.6113 29.6094C46.6113 29.332 46.6621 29.0977 46.7637 28.9062C46.8809 28.6758 47.0508 28.5605 47.2734 28.5605C47.4258 28.5605 47.5527 28.6152 47.6543 28.7246C47.7598 28.8301 47.8125 28.9609 47.8125 29.1172C47.8125 29.1523 47.8066 29.2168 47.7949 29.3105C47.7754 29.4316 47.7617 29.543 47.7539 29.6445C48.0898 29.4141 48.4141 29.2422 48.7266 29.1289C49.0391 29.0117 49.3379 28.9531 49.623 28.9531C50.4238 28.9531 51.0098 29.3086 51.3809 30.0195C51.6738 30.582 51.8203 31.3262 51.8203 32.252C51.8203 33.0957 51.5938 33.791 51.1406 34.3379C50.6602 34.916 50.0195 35.2051 49.2188 35.2051ZM49.623 30.125C49.2637 30.125 48.9395 30.2051 48.6504 30.3652C48.4434 30.4785 48.1816 30.6855 47.8652 30.9863C47.916 31.873 47.9414 32.8047 47.9414 33.7812C48.3672 33.9453 48.793 34.0273 49.2188 34.0273C49.707 34.0273 50.0801 33.8457 50.3379 33.4824C50.5605 33.166 50.6719 32.7559 50.6719 32.252C50.6719 31.541 50.584 31.0098 50.4082 30.6582C50.2363 30.3027 49.9746 30.125 49.623 30.125Z" stroke="#161616" stroke-width="2" mask="url(#path-1-inside-1_3_13)"/>
<path d="M61.357 32.334C61.357 33.2871 61.0309 33.998 60.3785 34.4668C59.8082 34.877 59.0289 35.082 58.0406 35.082C57.8531 35.082 57.5953 35.0742 57.2672 35.0586C56.9 35.0391 56.6422 35.0293 56.4938 35.0293C56.4195 35.0527 56.3453 35.0645 56.2711 35.0645C55.8531 35.0645 55.6441 34.7188 55.6441 34.0273C55.6441 33.9258 55.6715 33.5859 55.7262 33.0078C55.8004 32.2266 55.8375 31.4961 55.8375 30.8164C55.8375 30.4219 55.818 29.834 55.7789 29.0527C55.7398 28.2715 55.7203 27.6855 55.7203 27.2949C55.7203 26.8418 55.7457 26.5605 55.7965 26.4512C55.8902 26.2363 56.1344 26.1289 56.5289 26.1289C56.8219 26.1289 57.2633 26.1211 57.8531 26.1055C58.4469 26.0898 58.8922 26.082 59.1891 26.082H60.6656C60.8375 26.082 60.9762 26.1367 61.0816 26.2461C61.191 26.3516 61.2457 26.4902 61.2457 26.6621C61.2457 26.8301 61.191 26.9688 61.0816 27.0781C60.9762 27.1875 60.8375 27.2422 60.6656 27.2422C60.3883 27.2422 59.1363 27.2578 56.9098 27.2891C56.9293 27.9336 56.9645 28.6523 57.0152 29.4453C57.359 29.4336 57.6012 29.4277 57.7418 29.4277C58.941 29.4277 59.8121 29.6074 60.3551 29.9668C61.023 30.4121 61.357 31.2012 61.357 32.334ZM60.191 32.334C60.191 31.6191 59.9918 31.1328 59.5934 30.875C59.2809 30.6719 58.7477 30.5703 57.9938 30.5703C57.7828 30.5703 57.4566 30.5859 57.0152 30.6172C57.027 30.7695 57.0328 30.9355 57.0328 31.1152C57.0328 31.4824 56.982 32.4121 56.8805 33.9043C57.3922 33.916 57.7789 33.9219 58.0406 33.9219C59.4742 33.9219 60.191 33.3926 60.191 32.334Z" stroke="#161616" stroke-width="2" mask="url(#path-1-inside-1_3_13)"/>
<path d="M70.3137 29.7734L68.2863 34.1562C67.7863 35.2227 67.4035 36.1152 67.1379 36.834L66.7512 37.9707C66.6496 38.252 66.4738 38.3926 66.2238 38.3926C66.0598 38.3926 65.9172 38.3379 65.7961 38.2285C65.6789 38.123 65.6203 37.9902 65.6203 37.8301C65.6203 37.4395 66.0422 36.3086 66.8859 34.4375L64.7883 30.4004L64.5246 29.9727C64.4191 29.793 64.3664 29.6426 64.3664 29.5215C64.3664 29.3613 64.427 29.2207 64.548 29.0996C64.673 28.9785 64.8117 28.918 64.9641 28.918C65.1438 28.918 65.2824 28.9863 65.3801 29.123C66.0441 30.0449 66.757 31.3574 67.5188 33.0605L68.3859 31.0391C68.6984 30.3398 68.9992 29.7383 69.2883 29.2344C69.4133 29.0156 69.5773 28.9062 69.7805 28.9062C69.9406 28.9062 70.0813 28.9629 70.2023 29.0762C70.3273 29.1895 70.3898 29.3242 70.3898 29.4805C70.3898 29.5664 70.3645 29.6641 70.3137 29.7734Z" stroke="#161616" stroke-width="2" mask="url(#path-1-inside-1_3_13)"/>
<path d="M78.7137 34.5547C78.7137 34.7109 78.6512 34.8379 78.5262 34.9355C78.4051 35.0332 78.2684 35.082 78.116 35.082C77.8426 35.082 77.6531 34.9434 77.5477 34.666C77.4461 34.3887 77.1629 33.9199 76.698 33.2598C76.202 32.5605 75.8816 32.209 75.7371 32.2051C75.698 32.2051 75.4637 32.2051 75.034 32.2051C75.034 32.334 75.032 32.5625 75.0281 32.8906C75.0242 33.1953 75.0223 33.4258 75.0223 33.582C75.0223 34.2227 75.0125 34.5879 74.993 34.6777C74.9305 34.9941 74.7391 35.1523 74.4187 35.1523C74.2547 35.1523 74.1141 35.1035 73.9969 35.0059C73.8836 34.9082 73.827 34.7793 73.827 34.6191C73.827 34.4355 73.8348 34.1484 73.8504 33.7578C73.866 33.3633 73.8738 33.0723 73.8738 32.8848C73.8738 32.5137 73.8602 31.957 73.8328 31.2148C73.8055 30.4727 73.7918 29.9141 73.7918 29.5391C73.7918 29.0352 73.993 28.7832 74.3953 28.7832C74.5594 28.7832 74.698 28.834 74.8113 28.9355C74.9246 29.0371 74.9812 29.166 74.9812 29.3223C74.9812 29.6074 74.9949 30.1836 75.0223 31.0508C75.1277 31.0508 75.2703 31.0508 75.45 31.0508C75.9266 31.0195 76.2703 30.8066 76.4812 30.4121C76.5437 30.2676 76.6258 30.0801 76.7273 29.8496C77.0281 29.2246 77.4012 28.9121 77.8465 28.9121C77.9871 28.9121 78.1336 28.9453 78.2859 29.0117C78.4812 29.0977 78.5789 29.2109 78.5789 29.3516C78.5789 29.6602 78.4461 29.8145 78.1805 29.8145C77.9617 29.8145 77.7352 30.0762 77.5008 30.5996C77.3367 30.9551 77.2449 31.1523 77.2254 31.1914C77.1043 31.4141 76.9695 31.5859 76.8211 31.707C77.2117 31.9844 77.6219 32.4414 78.0516 33.0781C78.493 33.7305 78.7137 34.2227 78.7137 34.5547Z" stroke="#161616" stroke-width="2" mask="url(#path-1-inside-1_3_13)"/>
<path d="M26.8108 17.3215C29.6586 11.2142 34.4797 6.24365 40.4971 3.21063C46.5145 0.177618 53.3778 -0.741189 59.9811 0.602266C66.5844 1.94572 72.5431 5.4732 76.897 10.6163C81.251 15.7594 83.7466 22.2186 83.9818 28.953C84.2169 35.6875 82.1779 42.305 78.1934 47.7393C74.2088 53.1736 68.5107 57.1081 62.0172 58.9089C55.5237 60.7097 48.613 60.2719 42.3987 57.666C36.1844 55.0602 31.0284 50.438 27.7614 44.5443L29.0734 43.8171C32.1769 49.4161 37.0752 53.8071 42.9788 56.2827C48.8824 58.7583 55.4475 59.1742 61.6163 57.4635C67.7851 55.7527 73.1983 52.0149 76.9837 46.8523C80.769 41.6898 82.7061 35.4031 82.4827 29.0054C82.2593 22.6076 79.8884 16.4714 75.7522 11.5855C71.6159 6.69954 65.9551 3.34844 59.682 2.07215C53.4089 0.79587 46.8888 1.66874 41.1722 4.5501C35.4557 7.43147 30.8757 12.1535 28.1703 17.9554L26.8108 17.3215Z" stroke="#161616" stroke-width="2" mask="url(#path-1-inside-1_3_13)"/>
</svg>
