<svg width="55" height="55" viewBox="0 0 55 55" fill="none" xmlns="http://www.w3.org/2000/svg">
<path d="M50 25C50 38.8071 38.8071 50 25 50C11.1929 50 0 38.8071 0 25C0 11.1929 11.1929 0 25 0C38.8071 0 50 11.1929 50 25ZM6.25 25C6.25 35.3553 14.6447 43.75 25 43.75C35.3553 43.75 43.75 35.3553 43.75 25C43.75 14.6447 35.3553 6.25 25 6.25C14.6447 6.25 6.25 14.6447 6.25 25Z" fill="#161616"/>
<path d="M40.2667 46.8002C38.4626 44.996 38.4626 42.0709 40.2667 40.2667C42.0709 38.4626 44.996 38.4626 46.8002 40.2667L53.4615 46.928C55.2656 48.7322 55.2656 51.6573 53.4615 53.4615C51.6573 55.2656 48.7322 55.2656 46.928 53.4615L40.2667 46.8002Z" fill="#161616"/>
</svg>
